<svg width="354" height="46" viewBox="0 0 354 46" fill="none" xmlns="http://www.w3.org/2000/svg">
<circle cx="12" cy="12" r="12" fill="#343434"/>
<path d="M7.20007 15L10.8001 11.4L7.20007 7.80005" stroke="#5DF5D6" stroke-width="2" stroke-linecap="round" stroke-linejoin="round"/>
<path d="M12.0002 16.2H16.8002" stroke="#5DF5D6" stroke-width="2" stroke-linecap="round" stroke-linejoin="round"/>
<path d="M28 0H286C294.837 0 302 7.16344 302 16V30C302 38.8366 294.837 46 286 46H44C35.1634 46 28 38.8366 28 30V0Z" fill="#EFEFEF"/>
<path d="M45.0568 20V11.2727H46.1136V19.0625H50.1705V20H45.0568ZM54.3295 20.1364C53.7386 20.1364 53.2202 19.9957 52.7741 19.7145C52.331 19.4332 51.9844 19.0398 51.7344 18.5341C51.4872 18.0284 51.3636 17.4375 51.3636 16.7614C51.3636 16.0795 51.4872 15.4844 51.7344 14.9759C51.9844 14.4673 52.331 14.0724 52.7741 13.7912C53.2202 13.5099 53.7386 13.3693 54.3295 13.3693C54.9205 13.3693 55.4375 13.5099 55.8807 13.7912C56.3267 14.0724 56.6733 14.4673 56.9205 14.9759C57.1705 15.4844 57.2955 16.0795 57.2955 16.7614C57.2955 17.4375 57.1705 18.0284 56.9205 18.5341C56.6733 19.0398 56.3267 19.4332 55.8807 19.7145C55.4375 19.9957 54.9205 20.1364 54.3295 20.1364ZM54.3295 19.233C54.7784 19.233 55.1477 19.1179 55.4375 18.8878C55.7273 18.6577 55.9418 18.3551 56.081 17.9801C56.2202 17.6051 56.2898 17.1989 56.2898 16.7614C56.2898 16.3239 56.2202 15.9162 56.081 15.5384C55.9418 15.1605 55.7273 14.8551 55.4375 14.6222C55.1477 14.3892 54.7784 14.2727 54.3295 14.2727C53.8807 14.2727 53.5114 14.3892 53.2216 14.6222C52.9318 14.8551 52.7173 15.1605 52.5781 15.5384C52.4389 15.9162 52.3693 16.3239 52.3693 16.7614C52.3693 17.1989 52.4389 17.6051 52.5781 17.9801C52.7173 18.3551 52.9318 18.6577 53.2216 18.8878C53.5114 19.1179 53.8807 19.233 54.3295 19.233ZM58.8306 20V13.4545H59.8022V14.4432H59.8704C59.9897 14.1193 60.2056 13.8565 60.5181 13.6548C60.8306 13.4531 61.1829 13.3523 61.5749 13.3523C61.6488 13.3523 61.7411 13.3537 61.8519 13.3565C61.9627 13.3594 62.0465 13.3636 62.1033 13.3693V14.392C62.0692 14.3835 61.9911 14.3707 61.869 14.3537C61.7496 14.3338 61.6232 14.3239 61.4897 14.3239C61.1715 14.3239 60.8874 14.3906 60.6374 14.5241C60.3903 14.6548 60.1942 14.8366 60.0494 15.0696C59.9073 15.2997 59.8363 15.5625 59.8363 15.858V20H58.8306ZM65.8406 20.1364C65.2099 20.1364 64.6658 19.9972 64.2085 19.7188C63.7539 19.4375 63.4031 19.0455 63.1559 18.5426C62.9116 18.0369 62.7894 17.4489 62.7894 16.7784C62.7894 16.108 62.9116 15.517 63.1559 15.0057C63.4031 14.4915 63.7468 14.0909 64.1871 13.804C64.6303 13.5142 65.1474 13.3693 65.7383 13.3693C66.0792 13.3693 66.4158 13.4261 66.7482 13.5398C67.0806 13.6534 67.3832 13.8381 67.6559 14.0938C67.9286 14.3466 68.146 14.6818 68.3079 15.0994C68.4698 15.517 68.5508 16.0312 68.5508 16.642V17.0682H63.5053V16.1989H67.5281C67.5281 15.8295 67.4542 15.5 67.3065 15.2102C67.1616 14.9205 66.9542 14.6918 66.6843 14.5241C66.4173 14.3565 66.1019 14.2727 65.7383 14.2727C65.3377 14.2727 64.9911 14.3722 64.6985 14.571C64.4087 14.767 64.1857 15.0227 64.0295 15.3381C63.8732 15.6534 63.7951 15.9915 63.7951 16.3523V16.9318C63.7951 17.4261 63.8803 17.8452 64.0508 18.1889C64.2241 18.5298 64.4641 18.7898 64.771 18.9688C65.0778 19.1449 65.4343 19.233 65.8406 19.233C66.1048 19.233 66.3434 19.196 66.5565 19.1222C66.7724 19.0455 66.9585 18.9318 67.1147 18.7812C67.271 18.6278 67.3917 18.4375 67.4769 18.2102L68.4485 18.483C68.3462 18.8125 68.1744 19.1023 67.9329 19.3523C67.6914 19.5994 67.3931 19.7926 67.038 19.9318C66.6829 20.0682 66.2837 20.1364 65.8406 20.1364ZM70.0806 20V13.4545H71.0522V14.4773H71.1374C71.2738 14.1278 71.494 13.8565 71.7979 13.6634C72.1019 13.4673 72.467 13.3693 72.8931 13.3693C73.3249 13.3693 73.6843 13.4673 73.9712 13.6634C74.261 13.8565 74.4869 14.1278 74.6488 14.4773H74.717C74.8846 14.1392 75.136 13.8707 75.4712 13.6719C75.8065 13.4702 76.2085 13.3693 76.6772 13.3693C77.2624 13.3693 77.7411 13.5526 78.1133 13.919C78.4854 14.2827 78.6715 14.8494 78.6715 15.6193V20H77.6658V15.6193C77.6658 15.1364 77.5337 14.7912 77.2695 14.5838C77.0053 14.3764 76.6942 14.2727 76.3363 14.2727C75.8761 14.2727 75.5195 14.4119 75.2667 14.6903C75.0138 14.9659 74.8874 15.3153 74.8874 15.7386V20H73.8647V15.517C73.8647 15.1449 73.744 14.8452 73.5025 14.6179C73.261 14.3878 72.9499 14.2727 72.5692 14.2727C72.3079 14.2727 72.0636 14.3423 71.8363 14.4815C71.6119 14.6207 71.43 14.8139 71.2908 15.0611C71.1545 15.3054 71.0863 15.5881 71.0863 15.9091V20H70.0806ZM83.8853 20V13.4545H84.891V20H83.8853ZM84.3967 12.3636C84.2006 12.3636 84.0316 12.2969 83.8896 12.1634C83.7504 12.0298 83.6808 11.8693 83.6808 11.6818C83.6808 11.4943 83.7504 11.3338 83.8896 11.2003C84.0316 11.0668 84.2006 11 84.3967 11C84.5927 11 84.7603 11.0668 84.8995 11.2003C85.0415 11.3338 85.1126 11.4943 85.1126 11.6818C85.1126 11.8693 85.0415 12.0298 84.8995 12.1634C84.7603 12.2969 84.5927 12.3636 84.3967 12.3636ZM86.733 22.4545V13.4545H87.7045V14.4943H87.8239C87.8977 14.3807 88 14.2358 88.1307 14.0597C88.2642 13.8807 88.4545 13.7216 88.7017 13.5824C88.9517 13.4403 89.2898 13.3693 89.7159 13.3693C90.267 13.3693 90.7528 13.5071 91.1733 13.7827C91.5938 14.0582 91.9219 14.4489 92.1577 14.9545C92.3935 15.4602 92.5114 16.0568 92.5114 16.7443C92.5114 17.4375 92.3935 18.0384 92.1577 18.5469C91.9219 19.0526 91.5952 19.4446 91.1776 19.723C90.7599 19.9986 90.2784 20.1364 89.733 20.1364C89.3125 20.1364 88.9759 20.0668 88.723 19.9276C88.4702 19.7855 88.2756 19.625 88.1392 19.446C88.0028 19.2642 87.8977 19.1136 87.8239 18.9943H87.7386V22.4545H86.733ZM87.7216 16.7273C87.7216 17.2216 87.794 17.6577 87.9389 18.0355C88.0838 18.4105 88.2955 18.7045 88.5739 18.9176C88.8523 19.1278 89.1932 19.233 89.5966 19.233C90.017 19.233 90.3679 19.1222 90.6491 18.9006C90.9332 18.6761 91.1463 18.375 91.2884 17.9972C91.4332 17.6165 91.5057 17.1932 91.5057 16.7273C91.5057 16.267 91.4347 15.8523 91.2926 15.483C91.1534 15.1108 90.9418 14.8168 90.6577 14.6009C90.3764 14.3821 90.0227 14.2727 89.5966 14.2727C89.1875 14.2727 88.8438 14.3764 88.5653 14.5838C88.2869 14.7884 88.0767 15.0753 87.9347 15.4446C87.7926 15.8111 87.7216 16.2386 87.7216 16.7273ZM98.6818 14.9205L97.7784 15.1761C97.7216 15.0256 97.6378 14.8793 97.527 14.7372C97.419 14.5923 97.2713 14.473 97.0838 14.3793C96.8963 14.2855 96.6562 14.2386 96.3636 14.2386C95.9631 14.2386 95.6293 14.331 95.3622 14.5156C95.098 14.6974 94.9659 14.929 94.9659 15.2102C94.9659 15.4602 95.0568 15.6577 95.2386 15.8026C95.4205 15.9474 95.7045 16.0682 96.0909 16.1648L97.0625 16.4034C97.6477 16.5455 98.0838 16.7628 98.3707 17.0554C98.6577 17.3452 98.8011 17.7187 98.8011 18.1761C98.8011 18.5511 98.6932 18.8864 98.4773 19.1818C98.2642 19.4773 97.9659 19.7102 97.5824 19.8807C97.1989 20.0511 96.7528 20.1364 96.2443 20.1364C95.5767 20.1364 95.0241 19.9915 94.5866 19.7017C94.1491 19.4119 93.8722 18.9886 93.7557 18.4318L94.7102 18.1932C94.8011 18.5455 94.973 18.8097 95.2259 18.9858C95.4815 19.1619 95.8153 19.25 96.2273 19.25C96.696 19.25 97.0682 19.1506 97.3438 18.9517C97.6222 18.75 97.7614 18.5085 97.7614 18.2273C97.7614 18 97.6818 17.8097 97.5227 17.6562C97.3636 17.5 97.1193 17.3835 96.7898 17.3068L95.6989 17.0511C95.0994 16.9091 94.6591 16.6889 94.3778 16.3906C94.0994 16.0895 93.9602 15.7131 93.9602 15.2614C93.9602 14.892 94.0639 14.5653 94.2713 14.2812C94.4815 13.9972 94.767 13.7741 95.1278 13.6122C95.4915 13.4503 95.9034 13.3693 96.3636 13.3693C97.0114 13.3693 97.5199 13.5114 97.8892 13.7955C98.2614 14.0795 98.5256 14.4545 98.6818 14.9205ZM104.44 17.3239V13.4545H105.446V20H104.44V18.892H104.372C104.218 19.2244 103.98 19.5071 103.656 19.7401C103.332 19.9702 102.923 20.0852 102.429 20.0852C102.02 20.0852 101.656 19.9957 101.338 19.8168C101.02 19.6349 100.77 19.3622 100.588 18.9986C100.406 18.6321 100.315 18.1705 100.315 17.6136V13.4545H101.321V17.5455C101.321 18.0227 101.454 18.4034 101.721 18.6875C101.991 18.9716 102.335 19.1136 102.752 19.1136C103.002 19.1136 103.257 19.0497 103.515 18.9219C103.777 18.794 103.995 18.598 104.172 18.3338C104.35 18.0696 104.44 17.733 104.44 17.3239ZM107.288 20V13.4545H108.259V14.4773H108.344C108.481 14.1278 108.701 13.8565 109.005 13.6634C109.309 13.4673 109.674 13.3693 110.1 13.3693C110.532 13.3693 110.891 13.4673 111.178 13.6634C111.468 13.8565 111.694 14.1278 111.856 14.4773H111.924C112.092 14.1392 112.343 13.8707 112.678 13.6719C113.013 13.4702 113.415 13.3693 113.884 13.3693C114.469 13.3693 114.948 13.5526 115.32 13.919C115.692 14.2827 115.879 14.8494 115.879 15.6193V20H114.873V15.6193C114.873 15.1364 114.741 14.7912 114.477 14.5838C114.212 14.3764 113.901 14.2727 113.543 14.2727C113.083 14.2727 112.727 14.4119 112.474 14.6903C112.221 14.9659 112.094 15.3153 112.094 15.7386V20H111.072V15.517C111.072 15.1449 110.951 14.8452 110.71 14.6179C110.468 14.3878 110.157 14.2727 109.776 14.2727C109.515 14.2727 109.271 14.3423 109.043 14.4815C108.819 14.6207 108.637 14.8139 108.498 15.0611C108.362 15.3054 108.293 15.5881 108.293 15.9091V20H107.288ZM123.564 20.1364C123.018 20.1364 122.537 19.9986 122.119 19.723C121.702 19.4446 121.375 19.0526 121.139 18.5469C120.903 18.0384 120.786 17.4375 120.786 16.7443C120.786 16.0568 120.903 15.4602 121.139 14.9545C121.375 14.4489 121.703 14.0582 122.124 13.7827C122.544 13.5071 123.03 13.3693 123.581 13.3693C124.007 13.3693 124.344 13.4403 124.591 13.5824C124.841 13.7216 125.031 13.8807 125.162 14.0597C125.295 14.2358 125.399 14.3807 125.473 14.4943H125.558V11.2727H126.564V20H125.592V18.9943H125.473C125.399 19.1136 125.294 19.2642 125.158 19.446C125.021 19.625 124.827 19.7855 124.574 19.9276C124.321 20.0668 123.984 20.1364 123.564 20.1364ZM123.7 19.233C124.104 19.233 124.445 19.1278 124.723 18.9176C125.001 18.7045 125.213 18.4105 125.358 18.0355C125.503 17.6577 125.575 17.2216 125.575 16.7273C125.575 16.2386 125.504 15.8111 125.362 15.4446C125.22 15.0753 125.01 14.7884 124.732 14.5838C124.453 14.3764 124.109 14.2727 123.7 14.2727C123.274 14.2727 122.919 14.3821 122.635 14.6009C122.354 14.8168 122.142 15.1108 122 15.483C121.861 15.8523 121.791 16.267 121.791 16.7273C121.791 17.1932 121.862 17.6165 122.004 17.9972C122.149 18.375 122.362 18.6761 122.643 18.9006C122.928 19.1222 123.28 19.233 123.7 19.233ZM131.205 20.1364C130.614 20.1364 130.095 19.9957 129.649 19.7145C129.206 19.4332 128.859 19.0398 128.609 18.5341C128.362 18.0284 128.239 17.4375 128.239 16.7614C128.239 16.0795 128.362 15.4844 128.609 14.9759C128.859 14.4673 129.206 14.0724 129.649 13.7912C130.095 13.5099 130.614 13.3693 131.205 13.3693C131.795 13.3693 132.313 13.5099 132.756 13.7912C133.202 14.0724 133.548 14.4673 133.795 14.9759C134.045 15.4844 134.17 16.0795 134.17 16.7614C134.17 17.4375 134.045 18.0284 133.795 18.5341C133.548 19.0398 133.202 19.4332 132.756 19.7145C132.313 19.9957 131.795 20.1364 131.205 20.1364ZM131.205 19.233C131.653 19.233 132.023 19.1179 132.312 18.8878C132.602 18.6577 132.817 18.3551 132.956 17.9801C133.095 17.6051 133.165 17.1989 133.165 16.7614C133.165 16.3239 133.095 15.9162 132.956 15.5384C132.817 15.1605 132.602 14.8551 132.312 14.6222C132.023 14.3892 131.653 14.2727 131.205 14.2727C130.756 14.2727 130.386 14.3892 130.097 14.6222C129.807 14.8551 129.592 15.1605 129.453 15.5384C129.314 15.9162 129.244 16.3239 129.244 16.7614C129.244 17.1989 129.314 17.6051 129.453 17.9801C129.592 18.3551 129.807 18.6577 130.097 18.8878C130.386 19.1179 130.756 19.233 131.205 19.233ZM136.711 11.2727V20H135.706V11.2727H136.711ZM141.212 20.1364C140.621 20.1364 140.103 19.9957 139.657 19.7145C139.214 19.4332 138.867 19.0398 138.617 18.5341C138.37 18.0284 138.246 17.4375 138.246 16.7614C138.246 16.0795 138.37 15.4844 138.617 14.9759C138.867 14.4673 139.214 14.0724 139.657 13.7912C140.103 13.5099 140.621 13.3693 141.212 13.3693C141.803 13.3693 142.32 13.5099 142.763 13.7912C143.21 14.0724 143.556 14.4673 143.803 14.9759C144.053 15.4844 144.178 16.0795 144.178 16.7614C144.178 17.4375 144.053 18.0284 143.803 18.5341C143.556 19.0398 143.21 19.4332 142.763 19.7145C142.32 19.9957 141.803 20.1364 141.212 20.1364ZM141.212 19.233C141.661 19.233 142.031 19.1179 142.32 18.8878C142.61 18.6577 142.825 18.3551 142.964 17.9801C143.103 17.6051 143.173 17.1989 143.173 16.7614C143.173 16.3239 143.103 15.9162 142.964 15.5384C142.825 15.1605 142.61 14.8551 142.32 14.6222C142.031 14.3892 141.661 14.2727 141.212 14.2727C140.763 14.2727 140.394 14.3892 140.104 14.6222C139.815 14.8551 139.6 15.1605 139.461 15.5384C139.322 15.9162 139.252 16.3239 139.252 16.7614C139.252 17.1989 139.322 17.6051 139.461 17.9801C139.6 18.3551 139.815 18.6577 140.104 18.8878C140.394 19.1179 140.763 19.233 141.212 19.233ZM145.713 20V13.4545H146.685V14.4432H146.753C146.873 14.1193 147.088 13.8565 147.401 13.6548C147.713 13.4531 148.066 13.3523 148.458 13.3523C148.532 13.3523 148.624 13.3537 148.735 13.3565C148.846 13.3594 148.929 13.3636 148.986 13.3693V14.392C148.952 14.3835 148.874 14.3707 148.752 14.3537C148.632 14.3338 148.506 14.3239 148.373 14.3239C148.054 14.3239 147.77 14.3906 147.52 14.5241C147.273 14.6548 147.077 14.8366 146.932 15.0696C146.79 15.2997 146.719 15.5625 146.719 15.858V20H145.713ZM158.19 14.9205L157.286 15.1761C157.229 15.0256 157.146 14.8793 157.035 14.7372C156.927 14.5923 156.779 14.473 156.592 14.3793C156.404 14.2855 156.164 14.2386 155.871 14.2386C155.471 14.2386 155.137 14.331 154.87 14.5156C154.606 14.6974 154.474 14.929 154.474 15.2102C154.474 15.4602 154.565 15.6577 154.746 15.8026C154.928 15.9474 155.212 16.0682 155.599 16.1648L156.57 16.4034C157.156 16.5455 157.592 16.7628 157.879 17.0554C158.165 17.3452 158.309 17.7187 158.309 18.1761C158.309 18.5511 158.201 18.8864 157.985 19.1818C157.772 19.4773 157.474 19.7102 157.09 19.8807C156.707 20.0511 156.261 20.1364 155.752 20.1364C155.085 20.1364 154.532 19.9915 154.094 19.7017C153.657 19.4119 153.38 18.9886 153.263 18.4318L154.218 18.1932C154.309 18.5455 154.481 18.8097 154.734 18.9858C154.989 19.1619 155.323 19.25 155.735 19.25C156.204 19.25 156.576 19.1506 156.852 18.9517C157.13 18.75 157.269 18.5085 157.269 18.2273C157.269 18 157.19 17.8097 157.031 17.6562C156.871 17.5 156.627 17.3835 156.298 17.3068L155.207 17.0511C154.607 16.9091 154.167 16.6889 153.886 16.3906C153.607 16.0895 153.468 15.7131 153.468 15.2614C153.468 14.892 153.572 14.5653 153.779 14.2812C153.989 13.9972 154.275 13.7741 154.636 13.6122C154.999 13.4503 155.411 13.3693 155.871 13.3693C156.519 13.3693 157.028 13.5114 157.397 13.7955C157.769 14.0795 158.033 14.4545 158.19 14.9205ZM159.823 20V13.4545H160.828V20H159.823ZM160.334 12.3636C160.138 12.3636 159.969 12.2969 159.827 12.1634C159.688 12.0298 159.618 11.8693 159.618 11.6818C159.618 11.4943 159.688 11.3338 159.827 11.2003C159.969 11.0668 160.138 11 160.334 11C160.53 11 160.698 11.0668 160.837 11.2003C160.979 11.3338 161.05 11.4943 161.05 11.6818C161.05 11.8693 160.979 12.0298 160.837 12.1634C160.698 12.2969 160.53 12.3636 160.334 12.3636ZM165.517 13.4545V14.3068H162.125V13.4545H165.517ZM163.114 11.8864H164.119V18.125C164.119 18.4091 164.161 18.6222 164.243 18.7642C164.328 18.9034 164.436 18.9972 164.567 19.0455C164.7 19.0909 164.841 19.1136 164.989 19.1136C165.099 19.1136 165.19 19.108 165.261 19.0966C165.332 19.0824 165.389 19.071 165.432 19.0625L165.636 19.9659C165.568 19.9915 165.473 20.017 165.351 20.0426C165.229 20.071 165.074 20.0852 164.886 20.0852C164.602 20.0852 164.324 20.0241 164.051 19.902C163.781 19.7798 163.557 19.5938 163.378 19.3438C163.202 19.0938 163.114 18.7784 163.114 18.3977V11.8864ZM172.331 20.1534C171.916 20.1534 171.54 20.0753 171.202 19.919C170.864 19.7599 170.595 19.5312 170.396 19.233C170.197 18.9318 170.098 18.5682 170.098 18.142C170.098 17.767 170.172 17.4631 170.32 17.2301C170.467 16.9943 170.665 16.8097 170.912 16.6761C171.159 16.5426 171.432 16.4432 171.73 16.3778C172.031 16.3097 172.334 16.2557 172.638 16.2159C173.036 16.1648 173.358 16.1264 173.605 16.1009C173.855 16.0724 174.037 16.0256 174.151 15.9602C174.267 15.8949 174.325 15.7812 174.325 15.6193V15.5852C174.325 15.1648 174.21 14.8381 173.98 14.6051C173.753 14.3722 173.408 14.2557 172.945 14.2557C172.464 14.2557 172.088 14.3608 171.815 14.571C171.543 14.7812 171.351 15.0057 171.24 15.2443L170.286 14.9034C170.456 14.5057 170.683 14.196 170.967 13.9744C171.254 13.75 171.567 13.5937 171.905 13.5057C172.246 13.4148 172.581 13.3693 172.911 13.3693C173.121 13.3693 173.362 13.3949 173.635 13.446C173.911 13.4943 174.176 13.5952 174.432 13.7486C174.69 13.902 174.905 14.1335 175.075 14.4432C175.246 14.7528 175.331 15.1676 175.331 15.6875V20H174.325V19.1136H174.274C174.206 19.2557 174.092 19.4077 173.933 19.5696C173.774 19.7315 173.563 19.8693 173.298 19.983C173.034 20.0966 172.712 20.1534 172.331 20.1534ZM172.484 19.25C172.882 19.25 173.217 19.1719 173.49 19.0156C173.766 18.8594 173.973 18.6577 174.112 18.4105C174.254 18.1634 174.325 17.9034 174.325 17.6307V16.7102C174.283 16.7614 174.189 16.8082 174.044 16.8509C173.902 16.8906 173.737 16.9261 173.55 16.9574C173.365 16.9858 173.185 17.0114 173.009 17.0341C172.835 17.054 172.695 17.071 172.587 17.0852C172.325 17.1193 172.081 17.1747 171.854 17.2514C171.629 17.3253 171.447 17.4375 171.308 17.5881C171.172 17.7358 171.104 17.9375 171.104 18.1932C171.104 18.5426 171.233 18.8068 171.491 18.9858C171.753 19.1619 172.084 19.25 172.484 19.25ZM177.167 20V13.4545H178.138V14.4773H178.223C178.36 14.1278 178.58 13.8565 178.884 13.6634C179.188 13.4673 179.553 13.3693 179.979 13.3693C180.411 13.3693 180.77 13.4673 181.057 13.6634C181.347 13.8565 181.573 14.1278 181.735 14.4773H181.803C181.971 14.1392 182.222 13.8707 182.557 13.6719C182.892 13.4702 183.294 13.3693 183.763 13.3693C184.348 13.3693 184.827 13.5526 185.199 13.919C185.571 14.2827 185.757 14.8494 185.757 15.6193V20H184.752V15.6193C184.752 15.1364 184.62 14.7912 184.355 14.5838C184.091 14.3764 183.78 14.2727 183.422 14.2727C182.962 14.2727 182.605 14.4119 182.353 14.6903C182.1 14.9659 181.973 15.3153 181.973 15.7386V20H180.951V15.517C180.951 15.1449 180.83 14.8452 180.588 14.6179C180.347 14.3878 180.036 14.2727 179.655 14.2727C179.394 14.2727 179.15 14.3423 178.922 14.4815C178.698 14.6207 178.516 14.8139 178.377 15.0611C178.24 15.3054 178.172 15.5881 178.172 15.9091V20H177.167ZM190.341 20.1364C189.71 20.1364 189.166 19.9972 188.708 19.7188C188.254 19.4375 187.903 19.0455 187.656 18.5426C187.412 18.0369 187.289 17.4489 187.289 16.7784C187.289 16.108 187.412 15.517 187.656 15.0057C187.903 14.4915 188.247 14.0909 188.687 13.804C189.13 13.5142 189.647 13.3693 190.238 13.3693C190.579 13.3693 190.916 13.4261 191.248 13.5398C191.581 13.6534 191.883 13.8381 192.156 14.0938C192.429 14.3466 192.646 14.6818 192.808 15.0994C192.97 15.517 193.051 16.0312 193.051 16.642V17.0682H188.005V16.1989H192.028C192.028 15.8295 191.954 15.5 191.806 15.2102C191.662 14.9205 191.454 14.6918 191.184 14.5241C190.917 14.3565 190.602 14.2727 190.238 14.2727C189.838 14.2727 189.491 14.3722 189.199 14.571C188.909 14.767 188.686 15.0227 188.529 15.3381C188.373 15.6534 188.295 15.9915 188.295 16.3523V16.9318C188.295 17.4261 188.38 17.8452 188.551 18.1889C188.724 18.5298 188.964 18.7898 189.271 18.9688C189.578 19.1449 189.934 19.233 190.341 19.233C190.605 19.233 190.843 19.196 191.056 19.1222C191.272 19.0455 191.458 18.9318 191.615 18.7812C191.771 18.6278 191.892 18.4375 191.977 18.2102L192.949 18.483C192.846 18.8125 192.674 19.1023 192.433 19.3523C192.191 19.5994 191.893 19.7926 191.538 19.9318C191.183 20.0682 190.784 20.1364 190.341 20.1364ZM197.427 13.4545V14.3068H194.035V13.4545H197.427ZM195.024 11.8864H196.029V18.125C196.029 18.4091 196.071 18.6222 196.153 18.7642C196.238 18.9034 196.346 18.9972 196.477 19.0455C196.61 19.0909 196.751 19.1136 196.899 19.1136C197.01 19.1136 197.1 19.108 197.172 19.0966C197.243 19.0824 197.299 19.071 197.342 19.0625L197.547 19.9659C197.478 19.9915 197.383 20.017 197.261 20.0426C197.139 20.071 196.984 20.0852 196.797 20.0852C196.512 20.0852 196.234 20.0241 195.961 19.902C195.691 19.7798 195.467 19.5938 195.288 19.3438C195.112 19.0938 195.024 18.7784 195.024 18.3977V11.8864ZM200.44 18.8068L200.372 19.267C200.324 19.5909 200.25 19.9375 200.15 20.3068C200.054 20.6761 199.953 21.0241 199.848 21.3509C199.743 21.6776 199.656 21.9375 199.588 22.1307H198.821C198.858 21.9489 198.906 21.7088 198.966 21.4105C199.025 21.1122 199.085 20.7784 199.145 20.4091C199.207 20.0426 199.258 19.6676 199.298 19.2841L199.349 18.8068H200.44ZM208.337 20.1364C207.724 20.1364 207.195 19.9915 206.752 19.7017C206.309 19.4119 205.968 19.0128 205.729 18.5043C205.491 17.9957 205.371 17.4148 205.371 16.7614C205.371 16.0966 205.494 15.5099 205.738 15.0014C205.985 14.4901 206.329 14.0909 206.769 13.804C207.212 13.5142 207.729 13.3693 208.32 13.3693C208.781 13.3693 209.195 13.4545 209.565 13.625C209.934 13.7955 210.237 14.0341 210.472 14.3409C210.708 14.6477 210.854 15.0057 210.911 15.4148H209.906C209.829 15.1165 209.658 14.8523 209.394 14.6222C209.133 14.3892 208.781 14.2727 208.337 14.2727C207.945 14.2727 207.602 14.375 207.306 14.5795C207.013 14.7812 206.785 15.0668 206.62 15.4361C206.458 15.8026 206.377 16.233 206.377 16.7273C206.377 17.233 206.457 17.6733 206.616 18.0483C206.778 18.4233 207.005 18.7145 207.298 18.9219C207.593 19.1293 207.94 19.233 208.337 19.233C208.599 19.233 208.836 19.1875 209.049 19.0966C209.262 19.0057 209.442 18.875 209.59 18.7045C209.738 18.5341 209.843 18.3295 209.906 18.0909H210.911C210.854 18.4773 210.714 18.8253 210.489 19.1349C210.268 19.4418 209.974 19.6861 209.607 19.8679C209.244 20.0469 208.82 20.1364 208.337 20.1364ZM215.04 20.1364C214.45 20.1364 213.931 19.9957 213.485 19.7145C213.042 19.4332 212.695 19.0398 212.445 18.5341C212.198 18.0284 212.075 17.4375 212.075 16.7614C212.075 16.0795 212.198 15.4844 212.445 14.9759C212.695 14.4673 213.042 14.0724 213.485 13.7912C213.931 13.5099 214.45 13.3693 215.04 13.3693C215.631 13.3693 216.148 13.5099 216.592 13.7912C217.038 14.0724 217.384 14.4673 217.631 14.9759C217.881 15.4844 218.006 16.0795 218.006 16.7614C218.006 17.4375 217.881 18.0284 217.631 18.5341C217.384 19.0398 217.038 19.4332 216.592 19.7145C216.148 19.9957 215.631 20.1364 215.04 20.1364ZM215.04 19.233C215.489 19.233 215.859 19.1179 216.148 18.8878C216.438 18.6577 216.653 18.3551 216.792 17.9801C216.931 17.6051 217.001 17.1989 217.001 16.7614C217.001 16.3239 216.931 15.9162 216.792 15.5384C216.653 15.1605 216.438 14.8551 216.148 14.6222C215.859 14.3892 215.489 14.2727 215.04 14.2727C214.592 14.2727 214.222 14.3892 213.933 14.6222C213.643 14.8551 213.428 15.1605 213.289 15.5384C213.15 15.9162 213.08 16.3239 213.08 16.7614C213.08 17.1989 213.15 17.6051 213.289 17.9801C213.428 18.3551 213.643 18.6577 213.933 18.8878C214.222 19.1179 214.592 19.233 215.04 19.233ZM220.547 16.0625V20H219.542V13.4545H220.513V14.4773H220.598C220.752 14.1449 220.985 13.8778 221.297 13.6761C221.61 13.4716 222.013 13.3693 222.507 13.3693C222.951 13.3693 223.338 13.4602 223.671 13.642C224.003 13.821 224.262 14.0938 224.446 14.4602C224.631 14.8239 224.723 15.2841 224.723 15.8409V20H223.718V15.9091C223.718 15.3949 223.584 14.9943 223.317 14.7074C223.05 14.4176 222.684 14.2727 222.218 14.2727C221.897 14.2727 221.61 14.3423 221.357 14.4815C221.107 14.6207 220.909 14.8239 220.765 15.0909C220.62 15.358 220.547 15.6818 220.547 16.0625ZM231.197 14.9205L230.294 15.1761C230.237 15.0256 230.153 14.8793 230.043 14.7372C229.935 14.5923 229.787 14.473 229.599 14.3793C229.412 14.2855 229.172 14.2386 228.879 14.2386C228.479 14.2386 228.145 14.331 227.878 14.5156C227.614 14.6974 227.482 14.929 227.482 15.2102C227.482 15.4602 227.572 15.6577 227.754 15.8026C227.936 15.9474 228.22 16.0682 228.607 16.1648L229.578 16.4034C230.163 16.5455 230.599 16.7628 230.886 17.0554C231.173 17.3452 231.317 17.7187 231.317 18.1761C231.317 18.5511 231.209 18.8864 230.993 19.1818C230.78 19.4773 230.482 19.7102 230.098 19.8807C229.714 20.0511 229.268 20.1364 228.76 20.1364C228.092 20.1364 227.54 19.9915 227.102 19.7017C226.665 19.4119 226.388 18.9886 226.271 18.4318L227.226 18.1932C227.317 18.5455 227.489 18.8097 227.741 18.9858C227.997 19.1619 228.331 19.25 228.743 19.25C229.212 19.25 229.584 19.1506 229.859 18.9517C230.138 18.75 230.277 18.5085 230.277 18.2273C230.277 18 230.197 17.8097 230.038 17.6562C229.879 17.5 229.635 17.3835 229.305 17.3068L228.214 17.0511C227.615 16.9091 227.175 16.6889 226.893 16.3906C226.615 16.0895 226.476 15.7131 226.476 15.2614C226.476 14.892 226.58 14.5653 226.787 14.2812C226.997 13.9972 227.283 13.7741 227.643 13.6122C228.007 13.4503 228.419 13.3693 228.879 13.3693C229.527 13.3693 230.036 13.5114 230.405 13.7955C230.777 14.0795 231.041 14.4545 231.197 14.9205ZM235.575 20.1364C234.944 20.1364 234.4 19.9972 233.943 19.7188C233.488 19.4375 233.137 19.0455 232.89 18.5426C232.646 18.0369 232.524 17.4489 232.524 16.7784C232.524 16.108 232.646 15.517 232.89 15.0057C233.137 14.4915 233.481 14.0909 233.922 13.804C234.365 13.5142 234.882 13.3693 235.473 13.3693C235.814 13.3693 236.15 13.4261 236.483 13.5398C236.815 13.6534 237.118 13.8381 237.39 14.0938C237.663 14.3466 237.88 14.6818 238.042 15.0994C238.204 15.517 238.285 16.0312 238.285 16.642V17.0682H233.24V16.1989H237.262C237.262 15.8295 237.189 15.5 237.041 15.2102C236.896 14.9205 236.689 14.6918 236.419 14.5241C236.152 14.3565 235.836 14.2727 235.473 14.2727C235.072 14.2727 234.725 14.3722 234.433 14.571C234.143 14.767 233.92 15.0227 233.764 15.3381C233.608 15.6534 233.529 15.9915 233.529 16.3523V16.9318C233.529 17.4261 233.615 17.8452 233.785 18.1889C233.958 18.5298 234.199 18.7898 234.505 18.9688C234.812 19.1449 235.169 19.233 235.575 19.233C235.839 19.233 236.078 19.196 236.291 19.1222C236.507 19.0455 236.693 18.9318 236.849 18.7812C237.005 18.6278 237.126 18.4375 237.211 18.2102L238.183 18.483C238.081 18.8125 237.909 19.1023 237.667 19.3523C237.426 19.5994 237.127 19.7926 236.772 19.9318C236.417 20.0682 236.018 20.1364 235.575 20.1364ZM242.474 20.1364C241.86 20.1364 241.332 19.9915 240.889 19.7017C240.446 19.4119 240.105 19.0128 239.866 18.5043C239.627 17.9957 239.508 17.4148 239.508 16.7614C239.508 16.0966 239.63 15.5099 239.875 15.0014C240.122 14.4901 240.466 14.0909 240.906 13.804C241.349 13.5142 241.866 13.3693 242.457 13.3693C242.917 13.3693 243.332 13.4545 243.701 13.625C244.071 13.7955 244.373 14.0341 244.609 14.3409C244.845 14.6477 244.991 15.0057 245.048 15.4148H244.042C243.966 15.1165 243.795 14.8523 243.531 14.6222C243.27 14.3892 242.917 14.2727 242.474 14.2727C242.082 14.2727 241.738 14.375 241.443 14.5795C241.15 14.7812 240.922 15.0668 240.757 15.4361C240.595 15.8026 240.514 16.233 240.514 16.7273C240.514 17.233 240.593 17.6733 240.752 18.0483C240.914 18.4233 241.142 18.7145 241.434 18.9219C241.73 19.1293 242.076 19.233 242.474 19.233C242.735 19.233 242.973 19.1875 243.186 19.0966C243.399 19.0057 243.579 18.875 243.727 18.7045C243.875 18.5341 243.98 18.3295 244.042 18.0909H245.048C244.991 18.4773 244.85 18.8253 244.626 19.1349C244.404 19.4418 244.11 19.6861 243.744 19.8679C243.38 20.0469 242.957 20.1364 242.474 20.1364ZM249.365 13.4545V14.3068H245.973V13.4545H249.365ZM246.961 11.8864H247.967V18.125C247.967 18.4091 248.008 18.6222 248.091 18.7642C248.176 18.9034 248.284 18.9972 248.414 19.0455C248.548 19.0909 248.689 19.1136 248.836 19.1136C248.947 19.1136 249.038 19.108 249.109 19.0966C249.18 19.0824 249.237 19.071 249.279 19.0625L249.484 19.9659C249.416 19.9915 249.321 20.017 249.199 20.0426C249.076 20.071 248.922 20.0852 248.734 20.0852C248.45 20.0852 248.172 20.0241 247.899 19.902C247.629 19.7798 247.404 19.5938 247.225 19.3438C247.049 19.0938 246.961 18.7784 246.961 18.3977V11.8864ZM253.551 20.1364C252.921 20.1364 252.377 19.9972 251.919 19.7188C251.465 19.4375 251.114 19.0455 250.867 18.5426C250.623 18.0369 250.5 17.4489 250.5 16.7784C250.5 16.108 250.623 15.517 250.867 15.0057C251.114 14.4915 251.458 14.0909 251.898 13.804C252.341 13.5142 252.858 13.3693 253.449 13.3693C253.79 13.3693 254.127 13.4261 254.459 13.5398C254.792 13.6534 255.094 13.8381 255.367 14.0938C255.64 14.3466 255.857 14.6818 256.019 15.0994C256.181 15.517 256.262 16.0312 256.262 16.642V17.0682H251.216V16.1989H255.239C255.239 15.8295 255.165 15.5 255.017 15.2102C254.873 14.9205 254.665 14.6918 254.395 14.5241C254.128 14.3565 253.813 14.2727 253.449 14.2727C253.049 14.2727 252.702 14.3722 252.409 14.571C252.12 14.767 251.897 15.0227 251.74 15.3381C251.584 15.6534 251.506 15.9915 251.506 16.3523V16.9318C251.506 17.4261 251.591 17.8452 251.762 18.1889C251.935 18.5298 252.175 18.7898 252.482 18.9688C252.789 19.1449 253.145 19.233 253.551 19.233C253.816 19.233 254.054 19.196 254.267 19.1222C254.483 19.0455 254.669 18.9318 254.826 18.7812C254.982 18.6278 255.103 18.4375 255.188 18.2102L256.159 18.483C256.057 18.8125 255.885 19.1023 255.644 19.3523C255.402 19.5994 255.104 19.7926 254.749 19.9318C254.394 20.0682 253.995 20.1364 253.551 20.1364ZM260.638 13.4545V14.3068H257.246V13.4545H260.638ZM258.235 11.8864H259.24V18.125C259.24 18.4091 259.282 18.6222 259.364 18.7642C259.449 18.9034 259.557 18.9972 259.688 19.0455C259.821 19.0909 259.962 19.1136 260.11 19.1136C260.221 19.1136 260.311 19.108 260.382 19.0966C260.453 19.0824 260.51 19.071 260.553 19.0625L260.757 19.9659C260.689 19.9915 260.594 20.017 260.472 20.0426C260.35 20.071 260.195 20.0852 260.007 20.0852C259.723 20.0852 259.445 20.0241 259.172 19.902C258.902 19.7798 258.678 19.5938 258.499 19.3438C258.323 19.0938 258.235 18.7784 258.235 18.3977V11.8864ZM266.276 17.3239V13.4545H267.282V20H266.276V18.892H266.208C266.054 19.2244 265.816 19.5071 265.492 19.7401C265.168 19.9702 264.759 20.0852 264.265 20.0852C263.855 20.0852 263.492 19.9957 263.174 19.8168C262.855 19.6349 262.605 19.3622 262.424 18.9986C262.242 18.6321 262.151 18.1705 262.151 17.6136V13.4545H263.157V17.5455C263.157 18.0227 263.29 18.4034 263.557 18.6875C263.827 18.9716 264.171 19.1136 264.588 19.1136C264.838 19.1136 265.093 19.0497 265.351 18.9219C265.613 18.794 265.831 18.598 266.007 18.3338C266.186 18.0696 266.276 17.733 266.276 17.3239ZM269.124 20V13.4545H270.095V14.4432H270.163C270.283 14.1193 270.499 13.8565 270.811 13.6548C271.124 13.4531 271.476 13.3523 271.868 13.3523C271.942 13.3523 272.034 13.3537 272.145 13.3565C272.256 13.3594 272.339 13.3636 272.396 13.3693V14.392C272.362 14.3835 272.284 14.3707 272.162 14.3537C272.043 14.3338 271.916 14.3239 271.783 14.3239C271.464 14.3239 271.18 14.3906 270.93 14.5241C270.683 14.6548 270.487 14.8366 270.342 15.0696C270.2 15.2997 270.129 15.5625 270.129 15.858V20H269.124ZM46.8466 35.1534C46.4318 35.1534 46.0554 35.0753 45.7173 34.919C45.3793 34.7599 45.1108 34.5312 44.9119 34.233C44.7131 33.9318 44.6136 33.5682 44.6136 33.142C44.6136 32.767 44.6875 32.4631 44.8352 32.2301C44.983 31.9943 45.1804 31.8097 45.4276 31.6761C45.6747 31.5426 45.9474 31.4432 46.2457 31.3778C46.5469 31.3097 46.8494 31.2557 47.1534 31.2159C47.5511 31.1648 47.8736 31.1264 48.1207 31.1009C48.3707 31.0724 48.5526 31.0256 48.6662 30.9602C48.7827 30.8949 48.8409 30.7812 48.8409 30.6193V30.5852C48.8409 30.1648 48.7259 29.8381 48.4957 29.6051C48.2685 29.3722 47.9233 29.2557 47.4602 29.2557C46.9801 29.2557 46.6037 29.3608 46.331 29.571C46.0582 29.7812 45.8665 30.0057 45.7557 30.2443L44.8011 29.9034C44.9716 29.5057 45.1989 29.196 45.483 28.9744C45.7699 28.75 46.0824 28.5937 46.4205 28.5057C46.7614 28.4148 47.0966 28.3693 47.4261 28.3693C47.6364 28.3693 47.8778 28.3949 48.1506 28.446C48.4261 28.4943 48.6918 28.5952 48.9474 28.7486C49.206 28.902 49.4205 29.1335 49.5909 29.4432C49.7614 29.7528 49.8466 30.1676 49.8466 30.6875V35H48.8409V34.1136H48.7898C48.7216 34.2557 48.608 34.4077 48.4489 34.5696C48.2898 34.7315 48.0781 34.8693 47.8139 34.983C47.5497 35.0966 47.2273 35.1534 46.8466 35.1534ZM47 34.25C47.3977 34.25 47.733 34.1719 48.0057 34.0156C48.2813 33.8594 48.4886 33.6577 48.6278 33.4105C48.7699 33.1634 48.8409 32.9034 48.8409 32.6307V31.7102C48.7983 31.7614 48.7045 31.8082 48.5597 31.8509C48.4176 31.8906 48.2528 31.9261 48.0653 31.9574C47.8807 31.9858 47.7003 32.0114 47.5241 32.0341C47.3509 32.054 47.2102 32.071 47.1023 32.0852C46.8409 32.1193 46.5966 32.1747 46.3693 32.2514C46.1449 32.3253 45.9631 32.4375 45.8239 32.5881C45.6875 32.7358 45.6193 32.9375 45.6193 33.1932C45.6193 33.5426 45.7486 33.8068 46.0071 33.9858C46.2685 34.1619 46.5994 34.25 47 34.25ZM54.1538 35.1364C53.6083 35.1364 53.1268 34.9986 52.7092 34.723C52.2915 34.4446 51.9648 34.0526 51.729 33.5469C51.4933 33.0384 51.3754 32.4375 51.3754 31.7443C51.3754 31.0568 51.4933 30.4602 51.729 29.9545C51.9648 29.4489 52.293 29.0582 52.7134 28.7827C53.1339 28.5071 53.6197 28.3693 54.1708 28.3693C54.5969 28.3693 54.9336 28.4403 55.1808 28.5824C55.4308 28.7216 55.6211 28.8807 55.7518 29.0597C55.8853 29.2358 55.989 29.3807 56.0629 29.4943H56.1481V26.2727H57.1538V35H56.1822V33.9943H56.0629C55.989 34.1136 55.8839 34.2642 55.7475 34.446C55.6112 34.625 55.4165 34.7855 55.1637 34.9276C54.9109 35.0668 54.5742 35.1364 54.1538 35.1364ZM54.2901 34.233C54.6935 34.233 55.0344 34.1278 55.3129 33.9176C55.5913 33.7045 55.8029 33.4105 55.9478 33.0355C56.0927 32.6577 56.1651 32.2216 56.1651 31.7273C56.1651 31.2386 56.0941 30.8111 55.9521 30.4446C55.81 30.0753 55.5998 29.7884 55.3214 29.5838C55.043 29.3764 54.6992 29.2727 54.2901 29.2727C53.864 29.2727 53.5089 29.3821 53.2248 29.6009C52.9435 29.8168 52.7319 30.1108 52.5898 30.483C52.4506 30.8523 52.381 31.267 52.381 31.7273C52.381 32.1932 52.4521 32.6165 52.5941 32.9972C52.739 33.375 52.9521 33.6761 53.2333 33.9006C53.5174 34.1222 53.8697 34.233 54.2901 34.233ZM59.1353 35V28.4545H60.141V35H59.1353ZM59.6467 27.3636C59.4506 27.3636 59.2816 27.2969 59.1396 27.1634C59.0004 27.0298 58.9308 26.8693 58.9308 26.6818C58.9308 26.4943 59.0004 26.3338 59.1396 26.2003C59.2816 26.0668 59.4506 26 59.6467 26C59.8427 26 60.0103 26.0668 60.1495 26.2003C60.2915 26.3338 60.3626 26.4943 60.3626 26.6818C60.3626 26.8693 60.2915 27.0298 60.1495 27.1634C60.0103 27.2969 59.8427 27.3636 59.6467 27.3636ZM61.983 37.4545V28.4545H62.9545V29.4943H63.0739C63.1477 29.3807 63.25 29.2358 63.3807 29.0597C63.5142 28.8807 63.7045 28.7216 63.9517 28.5824C64.2017 28.4403 64.5398 28.3693 64.9659 28.3693C65.517 28.3693 66.0028 28.5071 66.4233 28.7827C66.8438 29.0582 67.1719 29.4489 67.4077 29.9545C67.6435 30.4602 67.7614 31.0568 67.7614 31.7443C67.7614 32.4375 67.6435 33.0384 67.4077 33.5469C67.1719 34.0526 66.8452 34.4446 66.4276 34.723C66.0099 34.9986 65.5284 35.1364 64.983 35.1364C64.5625 35.1364 64.2259 35.0668 63.973 34.9276C63.7202 34.7855 63.5256 34.625 63.3892 34.446C63.2528 34.2642 63.1477 34.1136 63.0739 33.9943H62.9886V37.4545H61.983ZM62.9716 31.7273C62.9716 32.2216 63.044 32.6577 63.1889 33.0355C63.3338 33.4105 63.5455 33.7045 63.8239 33.9176C64.1023 34.1278 64.4432 34.233 64.8466 34.233C65.267 34.233 65.6179 34.1222 65.8991 33.9006C66.1832 33.6761 66.3963 33.375 66.5384 32.9972C66.6832 32.6165 66.7557 32.1932 66.7557 31.7273C66.7557 31.267 66.6847 30.8523 66.5426 30.483C66.4034 30.1108 66.1918 29.8168 65.9077 29.6009C65.6264 29.3821 65.2727 29.2727 64.8466 29.2727C64.4375 29.2727 64.0938 29.3764 63.8153 29.5838C63.5369 29.7884 63.3267 30.0753 63.1847 30.4446C63.0426 30.8111 62.9716 31.2386 62.9716 31.7273ZM69.2955 35V28.4545H70.3011V35H69.2955ZM69.8068 27.3636C69.6108 27.3636 69.4418 27.2969 69.2997 27.1634C69.1605 27.0298 69.0909 26.8693 69.0909 26.6818C69.0909 26.4943 69.1605 26.3338 69.2997 26.2003C69.4418 26.0668 69.6108 26 69.8068 26C70.0028 26 70.1705 26.0668 70.3097 26.2003C70.4517 26.3338 70.5227 26.4943 70.5227 26.6818C70.5227 26.8693 70.4517 27.0298 70.3097 27.1634C70.1705 27.2969 70.0028 27.3636 69.8068 27.3636ZM76.7795 29.9205L75.8761 30.1761C75.8192 30.0256 75.7354 29.8793 75.6246 29.7372C75.5167 29.5923 75.369 29.473 75.1815 29.3793C74.994 29.2855 74.7539 29.2386 74.4613 29.2386C74.0607 29.2386 73.7269 29.331 73.4599 29.5156C73.1957 29.6974 73.0636 29.929 73.0636 30.2102C73.0636 30.4602 73.1545 30.6577 73.3363 30.8026C73.5181 30.9474 73.8022 31.0682 74.1886 31.1648L75.1602 31.4034C75.7454 31.5455 76.1815 31.7628 76.4684 32.0554C76.7553 32.3452 76.8988 32.7187 76.8988 33.1761C76.8988 33.5511 76.7908 33.8864 76.5749 34.1818C76.3619 34.4773 76.0636 34.7102 75.68 34.8807C75.2965 35.0511 74.8505 35.1364 74.342 35.1364C73.6744 35.1364 73.1218 34.9915 72.6843 34.7017C72.2468 34.4119 71.9698 33.9886 71.8533 33.4318L72.8079 33.1932C72.8988 33.5455 73.0707 33.8097 73.3235 33.9858C73.5792 34.1619 73.913 34.25 74.3249 34.25C74.7937 34.25 75.1658 34.1506 75.4414 33.9517C75.7198 33.75 75.859 33.5085 75.859 33.2273C75.859 33 75.7795 32.8097 75.6204 32.6562C75.4613 32.5 75.217 32.3835 74.8874 32.3068L73.7965 32.0511C73.1971 31.9091 72.7567 31.6889 72.4755 31.3906C72.1971 31.0895 72.0579 30.7131 72.0579 30.2614C72.0579 29.892 72.1616 29.5653 72.369 29.2812C72.5792 28.9972 72.8647 28.7741 73.2255 28.6122C73.5891 28.4503 74.0011 28.3693 74.4613 28.3693C75.109 28.3693 75.6175 28.5114 75.9869 28.7955C76.359 29.0795 76.6232 29.4545 76.7795 29.9205ZM81.0717 35.1364C80.4581 35.1364 79.9297 34.9915 79.4865 34.7017C79.0433 34.4119 78.7024 34.0128 78.4638 33.5043C78.2251 32.9957 78.1058 32.4148 78.1058 31.7614C78.1058 31.0966 78.228 30.5099 78.4723 30.0014C78.7195 29.4901 79.0632 29.0909 79.5036 28.804C79.9467 28.5142 80.4638 28.3693 81.0547 28.3693C81.5149 28.3693 81.9297 28.4545 82.299 28.625C82.6683 28.7955 82.9709 29.0341 83.2067 29.3409C83.4425 29.6477 83.5888 30.0057 83.6456 30.4148H82.6399C82.5632 30.1165 82.3928 29.8523 82.1286 29.6222C81.8672 29.3892 81.5149 29.2727 81.0717 29.2727C80.6797 29.2727 80.3359 29.375 80.0405 29.5795C79.7479 29.7812 79.5192 30.0668 79.3544 30.4361C79.1925 30.8026 79.1115 31.233 79.1115 31.7273C79.1115 32.233 79.1911 32.6733 79.3501 33.0483C79.5121 33.4233 79.7393 33.7145 80.032 33.9219C80.3274 34.1293 80.674 34.233 81.0717 34.233C81.3331 34.233 81.5703 34.1875 81.7834 34.0966C81.9964 34.0057 82.1768 33.875 82.3246 33.7045C82.4723 33.5341 82.5774 33.3295 82.6399 33.0909H83.6456C83.5888 33.4773 83.4482 33.8253 83.2237 34.1349C83.0021 34.4418 82.7081 34.6861 82.3416 34.8679C81.978 35.0469 81.5547 35.1364 81.0717 35.1364ZM85.1158 35V28.4545H86.1214V35H85.1158ZM85.6271 27.3636C85.4311 27.3636 85.2621 27.2969 85.12 27.1634C84.9808 27.0298 84.9112 26.8693 84.9112 26.6818C84.9112 26.4943 84.9808 26.3338 85.12 26.2003C85.2621 26.0668 85.4311 26 85.6271 26C85.8232 26 85.9908 26.0668 86.13 26.2003C86.272 26.3338 86.343 26.4943 86.343 26.6818C86.343 26.8693 86.272 27.0298 86.13 27.1634C85.9908 27.2969 85.8232 27.3636 85.6271 27.3636ZM88.9691 31.0625V35H87.9634V28.4545H88.935V29.4773H89.0202C89.1737 29.1449 89.4066 28.8778 89.7191 28.6761C90.0316 28.4716 90.435 28.3693 90.9293 28.3693C91.3725 28.3693 91.7603 28.4602 92.0927 28.642C92.4251 28.821 92.6836 29.0938 92.8683 29.4602C93.0529 29.8239 93.1452 30.2841 93.1452 30.8409V35H92.1396V30.9091C92.1396 30.3949 92.006 29.9943 91.739 29.7074C91.4719 29.4176 91.1055 29.2727 90.6396 29.2727C90.3185 29.2727 90.0316 29.3423 89.7788 29.4815C89.5288 29.6207 89.3313 29.8239 89.1864 30.0909C89.0415 30.358 88.9691 30.6818 88.9691 31.0625ZM97.625 37.5909C97.1392 37.5909 96.7216 37.5284 96.3722 37.4034C96.0227 37.2812 95.7315 37.1193 95.4986 36.9176C95.2685 36.7188 95.0852 36.5057 94.9489 36.2784L95.75 35.7159C95.8409 35.8352 95.956 35.9716 96.0952 36.125C96.2344 36.2812 96.4247 36.4162 96.6662 36.5298C96.9105 36.6463 97.2301 36.7045 97.625 36.7045C98.1534 36.7045 98.5895 36.5767 98.9332 36.321C99.277 36.0653 99.4489 35.6648 99.4489 35.1193V33.7898H99.3636C99.2898 33.9091 99.1847 34.0568 99.0483 34.233C98.9148 34.4062 98.7216 34.5611 98.4688 34.6974C98.2188 34.831 97.8807 34.8977 97.4545 34.8977C96.9261 34.8977 96.4517 34.7727 96.0312 34.5227C95.6136 34.2727 95.2827 33.9091 95.0384 33.4318C94.7969 32.9545 94.6761 32.375 94.6761 31.6932C94.6761 31.0227 94.794 30.4389 95.0298 29.9418C95.2656 29.4418 95.5938 29.0554 96.0142 28.7827C96.4347 28.5071 96.9205 28.3693 97.4716 28.3693C97.8977 28.3693 98.2358 28.4403 98.4858 28.5824C98.7386 28.7216 98.9318 28.8807 99.0653 29.0597C99.2017 29.2358 99.3068 29.3807 99.3807 29.4943H99.483V28.4545H100.455V35.1875C100.455 35.75 100.327 36.2074 100.071 36.5597C99.8182 36.9148 99.4773 37.1747 99.0483 37.3395C98.6222 37.5071 98.1477 37.5909 97.625 37.5909ZM97.5909 33.9943C97.9943 33.9943 98.3352 33.902 98.6136 33.7173C98.892 33.5327 99.1037 33.267 99.2486 32.9205C99.3935 32.5739 99.4659 32.1591 99.4659 31.6761C99.4659 31.2045 99.3949 30.7884 99.2528 30.4276C99.1108 30.0668 98.9006 29.7841 98.6222 29.5795C98.3438 29.375 98 29.2727 97.5909 29.2727C97.1648 29.2727 96.8097 29.3807 96.5256 29.5966C96.2443 29.8125 96.0327 30.1023 95.8906 30.4659C95.7514 30.8295 95.6818 31.233 95.6818 31.6761C95.6818 32.1307 95.7528 32.5327 95.8949 32.8821C96.0398 33.2287 96.2528 33.5014 96.5341 33.7003C96.8182 33.8963 97.1705 33.9943 97.5909 33.9943ZM108.415 35.1364C107.784 35.1364 107.24 34.9972 106.783 34.7188C106.328 34.4375 105.977 34.0455 105.73 33.5426C105.486 33.0369 105.364 32.4489 105.364 31.7784C105.364 31.108 105.486 30.517 105.73 30.0057C105.977 29.4915 106.321 29.0909 106.761 28.804C107.205 28.5142 107.722 28.3693 108.312 28.3693C108.653 28.3693 108.99 28.4261 109.322 28.5398C109.655 28.6534 109.957 28.8381 110.23 29.0938C110.503 29.3466 110.72 29.6818 110.882 30.0994C111.044 30.517 111.125 31.0312 111.125 31.642V32.0682H106.08V31.1989H110.102C110.102 30.8295 110.028 30.5 109.881 30.2102C109.736 29.9205 109.528 29.6918 109.259 29.5241C108.991 29.3565 108.676 29.2727 108.312 29.2727C107.912 29.2727 107.565 29.3722 107.273 29.571C106.983 29.767 106.76 30.0227 106.604 30.3381C106.447 30.6534 106.369 30.9915 106.369 31.3523V31.9318C106.369 32.4261 106.455 32.8452 106.625 33.1889C106.798 33.5298 107.038 33.7898 107.345 33.9688C107.652 34.1449 108.009 34.233 108.415 34.233C108.679 34.233 108.918 34.196 109.131 34.1222C109.347 34.0455 109.533 33.9318 109.689 33.7812C109.845 33.6278 109.966 33.4375 110.051 33.2102L111.023 33.483C110.92 33.8125 110.749 34.1023 110.507 34.3523C110.266 34.5994 109.967 34.7926 109.612 34.9318C109.257 35.0682 108.858 35.1364 108.415 35.1364ZM113.661 26.2727V35H112.655V26.2727H113.661ZM115.502 35V28.4545H116.508V35H115.502ZM116.014 27.3636C115.818 27.3636 115.649 27.2969 115.507 27.1634C115.368 27.0298 115.298 26.8693 115.298 26.6818C115.298 26.4943 115.368 26.3338 115.507 26.2003C115.649 26.0668 115.818 26 116.014 26C116.21 26 116.377 26.0668 116.517 26.2003C116.659 26.3338 116.73 26.4943 116.73 26.6818C116.73 26.8693 116.659 27.0298 116.517 27.1634C116.377 27.2969 116.21 27.3636 116.014 27.3636ZM121.197 28.4545V29.3068H117.805V28.4545H121.197ZM118.793 26.8864H119.799V33.125C119.799 33.4091 119.84 33.6222 119.923 33.7642C120.008 33.9034 120.116 33.9972 120.246 34.0455C120.38 34.0909 120.521 34.1136 120.668 34.1136C120.779 34.1136 120.87 34.108 120.941 34.0966C121.012 34.0824 121.069 34.071 121.112 34.0625L121.316 34.9659C121.248 34.9915 121.153 35.017 121.031 35.0426C120.908 35.071 120.754 35.0852 120.566 35.0852C120.282 35.0852 120.004 35.0241 119.731 34.902C119.461 34.7798 119.237 34.5938 119.058 34.3438C118.881 34.0938 118.793 33.7784 118.793 33.3977V26.8864Z" fill="black"/>
</svg>
